# Blender 4.4.3
# www.blender.org
mtllib Bullet.mtl
o Bullet
v -0.013311 -0.040969 0.135230
v 0.034851 -0.025320 0.135230
v 0.034851 0.025320 0.135230
v -0.013311 0.040969 0.135230
v -0.043078 0.000000 0.135230
v 0.000000 0.000000 0.172481
v -0.045805 -0.014883 0.107956
v -0.045805 0.014883 0.107956
v 0.000000 -0.048162 0.107956
v -0.028309 -0.038964 0.107956
v 0.045805 -0.014883 0.107956
v 0.028309 -0.038964 0.107956
v 0.028309 0.038964 0.107956
v 0.045805 0.014883 0.107956
v -0.028309 0.038964 0.107956
v -0.000000 0.048162 0.107956
v -0.033145 -0.024081 0.140007
v 0.012660 -0.038964 0.140007
v 0.040969 0.000000 0.140007
v 0.012660 0.038964 0.140007
v -0.033145 0.024081 0.140007
v -0.007824 -0.024081 0.160383
v -0.025320 0.000000 0.160383
v 0.020485 -0.014883 0.160383
v 0.020485 0.014883 0.160383
v -0.007824 0.024081 0.160383
v -0.037883 -0.012309 0.000000
v -0.045805 -0.014883 0.007922
v -0.045805 0.014883 0.007922
v -0.037883 0.012309 -0.000000
v -0.000000 -0.039832 0.000000
v -0.000000 -0.048162 0.007922
v -0.028309 -0.038964 0.007922
v -0.023413 -0.032225 0.000000
v 0.037883 -0.012309 0.000000
v 0.045805 -0.014883 0.007922
v 0.028309 -0.038964 0.007922
v 0.023413 -0.032225 0.000000
v 0.023413 0.032225 -0.000000
v 0.028309 0.038964 0.007922
v 0.045805 0.014883 0.007922
v 0.037883 0.012309 -0.000000
v -0.023413 0.032225 -0.000000
v -0.028309 0.038964 0.007922
v -0.000000 0.048162 0.007922
v -0.000000 0.039832 -0.000000
v -0.045805 0.014883 0.021183
v -0.045805 -0.014883 0.021183
v -0.028309 -0.038964 0.021183
v -0.028309 0.038964 0.021183
v -0.000000 -0.048162 0.021183
v 0.028309 -0.038964 0.021183
v 0.045805 -0.014883 0.021183
v 0.045805 0.014883 0.021183
v 0.028309 0.038964 0.021183
v -0.000000 0.048162 0.021183
vn -0.2863 -0.8812 0.3761
vn 0.7496 -0.5446 0.3761
vn 0.7496 0.5446 0.3761
vn -0.2863 0.8812 0.3761
vn -0.9266 -0.0000 0.3761
vn -0.0000 -0.0000 1.0000
vn -0.9457 -0.3142 0.0837
vn -0.9457 0.3142 0.0837
vn 0.0066 -0.9965 0.0837
vn -0.5911 -0.8023 0.0837
vn 0.9497 -0.3016 0.0837
vn 0.5804 -0.8100 0.0837
vn 0.5804 0.8100 0.0837
vn 0.9497 0.3016 0.0837
vn -0.5911 0.8023 0.0837
vn 0.0066 0.9965 0.0837
vn -0.7220 -0.5246 0.4511
vn 0.2758 -0.8488 0.4511
vn 0.8925 -0.0000 0.4511
vn 0.2758 0.8488 0.4511
vn -0.7220 0.5246 0.4511
vn -0.1946 -0.5988 0.7769
vn -0.6296 -0.0000 0.7769
vn 0.5093 -0.3701 0.7769
vn 0.5093 0.3701 0.7769
vn -0.1946 0.5988 0.7769
vn -0.4102 -0.1333 -0.9022
vn -0.8841 -0.2873 -0.3686
vn -0.8841 0.2873 -0.3686
vn -0.4102 0.1333 -0.9022
vn -0.0000 -0.4314 -0.9022
vn -0.0000 -0.9296 -0.3686
vn -0.5464 -0.7521 -0.3686
vn -0.2535 -0.3490 -0.9022
vn 0.4102 -0.1333 -0.9022
vn 0.8841 -0.2873 -0.3686
vn 0.5464 -0.7521 -0.3686
vn 0.2535 -0.3490 -0.9022
vn 0.2535 0.3490 -0.9022
vn 0.5464 0.7521 -0.3686
vn 0.8841 0.2873 -0.3686
vn 0.4102 0.1333 -0.9022
vn -0.2535 0.3490 -0.9022
vn -0.5464 0.7521 -0.3686
vn -0.0000 0.9296 -0.3686
vn -0.0000 0.4314 -0.9022
vn -0.9511 0.3090 -0.0000
vn -0.9511 -0.3090 -0.0000
vn -0.5878 -0.8090 -0.0000
vn -0.5878 0.8090 -0.0000
vn -0.0000 -1.0000 -0.0000
vn 0.5878 -0.8090 -0.0000
vn 0.9511 -0.3090 -0.0000
vn 0.9511 0.3090 -0.0000
vn 0.5878 0.8090 -0.0000
vn -0.0000 1.0000 -0.0000
vt 0.599915 0.785802
vt 0.595991 0.817315
vt 0.599152 0.817315
vt 0.599915 0.815003
vt 0.595991 0.834479
vt 0.599152 0.789544
vt 0.599915 0.909496
vt 0.595991 0.890020
vt 0.599152 0.862250
vt 0.599915 0.938697
vt 0.595991 0.907184
vt 0.599152 0.934955
vt 0.599915 0.862250
vt 0.595991 0.862250
vt 0.599152 0.907184
vt 0.594539 0.862250
vt 0.604265 0.890020
vt 0.604265 0.934955
vt 0.604265 0.952119
vt 0.604265 0.834479
vt 0.604265 0.789544
vt 0.604265 0.772380
vt 0.354493 0.721877
vt 0.359092 0.721877
vt 0.359092 0.701048
vt 0.354493 0.701048
vt 0.359092 0.646518
vt 0.354493 0.646518
vt 0.354493 0.524587
vt 0.359092 0.524587
vt 0.359092 0.503759
vt 0.354493 0.503759
vt 0.359092 0.579117
vt 0.354493 0.579117
vt 0.361839 0.640690
vt 0.361839 0.685788
vt 0.361839 0.703014
vt 0.361839 0.584946
vt 0.361839 0.539847
vt 0.361839 0.522621
vt 0.328433 0.646518
vt 0.328433 0.579117
vt 0.328433 0.524587
vt 0.328433 0.503759
vt 0.328433 0.701048
vt 0.328433 0.721877
s 1
usemtl Tank
f 1/1/1 22/2/22 17/3/17
f 2/4/2 24/5/24 18/6/18
f 3/7/3 25/8/25 19/9/19
f 4/10/4 26/11/26 20/12/20
f 5/13/5 23/14/23 21/15/21
f 23/14/23 6/16/6 26/11/26
f 23/14/23 26/11/26 21/15/21
f 21/15/21 26/11/26 4/10/4
f 26/11/26 6/16/6 25/8/25
f 26/11/26 25/8/25 20/12/20
f 20/12/20 25/8/25 3/7/3
f 25/8/25 6/16/6 24/5/24
f 25/8/25 24/5/24 19/9/19
f 19/9/19 24/5/24 2/4/2
f 24/5/24 6/16/6 22/2/22
f 24/5/24 22/2/22 18/6/18
f 18/6/18 22/2/22 1/1/1
f 22/2/22 6/16/6 23/14/23
f 22/2/22 23/14/23 17/3/17
f 17/3/17 23/14/23 5/13/5
f 8/17/8 5/13/5 21/15/21
f 8/17/8 21/15/21 15/18/15
f 15/18/15 21/15/21 4/10/4
f 16/19/16 4/10/4 20/12/20
f 16/19/16 20/12/20 13/18/13
f 13/18/13 20/12/20 3/7/3
f 14/17/14 3/7/3 19/9/19
f 14/17/14 19/9/19 11/20/11
f 11/20/11 19/9/19 2/4/2
f 12/21/12 2/4/2 18/6/18
f 12/21/12 18/6/18 9/22/9
f 9/22/9 18/6/18 1/1/1
f 10/21/10 1/1/1 17/3/17
f 10/21/10 17/3/17 7/20/7
f 7/20/7 17/3/17 5/13/5
f 15/18/15 4/10/4 16/19/16
f 13/18/13 3/7/3 14/17/14
f 11/20/11 2/4/2 12/21/12
f 9/22/9 1/1/1 10/21/10
f 7/20/7 5/13/5 8/17/8
f 56/23/56 45/24/45 44/25/44 50/26/50
f 50/26/50 44/25/44 29/27/29 47/28/47
f 49/29/49 33/30/33 32/31/32 51/32/51
f 55/26/55 40/25/40 45/24/45 56/23/56
f 52/29/52 37/30/37 36/33/36 53/34/53
f 54/28/54 41/27/41 40/25/40 55/26/55
f 51/32/51 32/31/32 37/30/37 52/29/52
f 53/34/53 36/33/36 41/27/41 54/28/54
f 48/34/48 28/33/28 33/30/33 49/29/49
f 47/28/47 29/27/29 28/33/28 48/34/48
f 30/35/30 29/27/29 44/25/44 43/36/43
f 46/37/46 45/24/45 40/25/40 39/36/39
f 42/35/42 41/27/41 36/33/36 35/38/35
f 38/39/38 37/30/37 32/31/32 31/40/31
f 34/39/34 33/30/33 28/33/28 27/38/27
f 43/36/43 44/25/44 45/24/45 46/37/46
f 39/36/39 40/25/40 41/27/41 42/35/42
f 35/38/35 36/33/36 37/30/37 38/39/38
f 31/40/31 32/31/32 33/30/33 34/39/34
f 27/38/27 28/33/28 29/27/29 30/35/30
f 30/35/30 43/36/43 46/37/46 39/36/39 42/35/42 35/38/35 38/39/38 31/40/31 34/39/34 27/38/27
f 8/41/8 47/28/47 48/34/48 7/42/7
f 7/42/7 48/34/48 49/29/49 10/43/10
f 11/42/11 53/34/53 54/28/54 14/41/14
f 9/44/9 51/32/51 52/29/52 12/43/12
f 14/41/14 54/28/54 55/26/55 13/45/13
f 12/43/12 52/29/52 53/34/53 11/42/11
f 13/45/13 55/26/55 56/23/56 16/46/16
f 10/43/10 49/29/49 51/32/51 9/44/9
f 15/45/15 50/26/50 47/28/47 8/41/8
f 16/46/16 56/23/56 50/26/50 15/45/15
